:version 1.10
:name ASF
:units
  mass 1
  length 1
  angle deg
:documentation
  ASF file generated by Kaydara
:root
  axis xyz
  order  tx ty tz rx ry rz
  position 0 0 0
  orientation 0 0 0
:bonedata
  begin
    id 1
    name RightUpLegDummy
    direction -1 2.30186e-007 8.31532e-007
    length 4.04083
    axis 0 0 0 xyz
  end
  begin
    id 2
    name RightUpLeg
    direction -0.000919234 -0.999985 0.00544864
    length 17.4221
    axis -3.80308 -0.00076134 -0.0523649 xyz
    dof rx ry rz
  end
  begin
    id 3
    name RightLeg
    direction -0.000919271 -0.999984 -0.00555045
    length 17.1239
    axis 4.00314 0.0181274 -0.183583 xyz
    dof rx ry rz
  end
  begin
    id 4
    name RightFoot
    direction -2.57843e-005 -4.04509e-007 1
    length 6.72091
    axis 8.18909e-005 -0.122003 -0.403008 xyz
    dof rx ry rz
  end
  begin
    id 5
    name RightToes
    direction 0.00116825 -0.014069 0.9999
    length 3.85082
    axis 0.000514414 0.540638 -0.356797 xyz
    dof rx ry rz
  end
  begin
    id 6
    name SpineDummy
    direction 0.0168869 0.966876 -0.254689
    length 6.99894
    axis 0 0 0 xyz
  end
  begin
    id 7
    name Spine
    direction -0.0132008 0.999903 0.00446247
    length 11.1999
    axis -0.00148109 0.00725429 0.756411 xyz
    dof rx ry rz
  end
  begin
    id 8
    name Spine1
    direction 0 0 0
    length 0
    axis -0.000934958 0.0245693 1.46543 xyz
    dof rx ry rz
  end
  begin
    id 9
    name HEadDummy
    direction -0.0255732 0.999672 0.00128215
    length 3.43865
    axis -0.000934958 0.0245693 1.46543 xyz
  end
  begin
    id 10
    name HEad
    direction -0.0472656 0.980052 0.19304
    length 5.12695
    axis -0.000934954 0.0245693 1.46543 xyz
    dof rx ry rz
  end
  begin
    id 11
    name LeftShoulder1Dummy
    direction 0.953098 0.301717 -0.023914
    length 3.68488
    axis -0.000934958 0.0245693 1.46543 xyz
  end
  begin
    id 12
    name LeftShoulder1
    direction 0.962466 0.271167 0.0112566
    length 3.13809
    axis -0.000934958 0.0245693 1.46543 xyz
    dof rx ry rz
  end
  begin
    id 13
    name LeftArm
    direction 0.999943 0.00455037 -0.00961766
    length 11.3419
    axis -23.1648 0.685459 1.22814 xyz
    dof rx ry rz
  end
  begin
    id 14
    name LeftForeArm
    direction 0.999332 0.0131969 0.0340885
    length 8.70632
    axis -9.90633 0.618216 0.0826942 xyz
    dof rx ry rz
  end
  begin
    id 15
    name LeftHand
    direction 0.994373 -0.0366703 0.0993905
    length 5.32135
    axis 0.00675269 0.680415 0.445699 xyz
    dof rx ry rz
  end
  begin
    id 16
    name RightShoulderDummy
    direction -0.967298 0.252589 -0.0230903
    length 3.68488
    axis -0.000934958 0.0245693 1.46543 xyz
  end
  begin
    id 17
    name RightShoulder
    direction -0.975062 0.221602 0.0120823
    length 3.13809
    axis 0.216257 0.0246515 1.45863 xyz
    dof rx ry rz
  end
  begin
    id 18
    name RightArm
    direction -0.99886 -0.00851186 -0.0469687
    length 10.3947
    axis -23.196 0.23503 -0.532632 xyz
    dof rx ry rz
  end
  begin
    id 19
    name RightForeArm
    direction -0.99909 0.00114866 0.0426317
    length 8.68355
    axis -9.91764 -0.134943 0.610517 xyz
    dof rx ry rz
  end
  begin
    id 20
    name RightHand
    direction -0.992888 -0.0489538 0.10852
    length 5.28593
    axis -0.00275396 -0.197403 0.246414 xyz
    dof rx ry rz
  end
  begin
    id 21
    name LeftUpLegDummy
    direction 1 -2.30186e-007 -8.31532e-007
    length 4.04083
    axis 0 0 0 xyz
  end
  begin
    id 22
    name LeftUpLeg
    direction -0.000920097 -1 2.79241e-006
    length 17.4221
    axis -3.48782 0.00143434 -0.0532288 xyz
    dof rx ry rz
  end
  begin
    id 23
    name LeftLeg
    direction -0.000920097 -1 2.7912e-006
    length 17.1239
    axis 3.68162 -0.00806512 -0.0529896 xyz
    dof rx ry rz
  end
  begin
    id 24
    name LeftFoot
    direction -2.57845e-005 -3.987e-007 1
    length 6.72091
    axis 3.02372e-005 -0.00147829 -0.214229 xyz
    dof rx ry rz
  end
  begin
    id 25
    name LeftToes
    direction 0.00813577 -0.00488255 0.999955
    length 3.85048
    axis 3.89895e-005 -0.0014783 -0.214229 xyz
    dof rx ry rz
  end
:hierarchy
  begin
    root RightUpLegDummy SpineDummy LeftUpLegDummy
    RightUpLegDummy RightUpLeg
    RightUpLeg RightLeg
    RightLeg RightFoot
    RightFoot RightToes
    SpineDummy Spine
    Spine Spine1
    Spine1 HEadDummy LeftShoulder1Dummy RightShoulderDummy
    HEadDummy HEad
    LeftShoulder1Dummy LeftShoulder1
    LeftShoulder1 LeftArm
    LeftArm LeftForeArm
    LeftForeArm LeftHand
    RightShoulderDummy RightShoulder
    RightShoulder RightArm
    RightArm RightForeArm
    RightForeArm RightHand
    LeftUpLegDummy LeftUpLeg
    LeftUpLeg LeftLeg
    LeftLeg LeftFoot
    LeftFoot LeftToes
  end

:SAMPLES-PER-SECOND 30
:FULLY-SPECIFIED
:DEGREES
103
root  -41.3478 34.8948 4.404 -140.979 88.1142 -150.38
RightUpLeg  -6.31949 -17.5834 -0.587566
RightLeg  1.8218 -2.21341 0.0725701
RightFoot  7.35442 0.0343667 -0.123032
RightToes  -27.4445 -0.115185 -0.246926
Spine  -2.13038 0.0510983 0.268377
Spine1  -4.2832 0.228562 1.21719
HEad  -75.6826 5.28611 3.91229
LeftShoulder1  -1.94126e-019 -3.10601e-018 -2.51263e-017
LeftArm  0.268255 22.8115 -76.0737
LeftForeArm  27.0093 -37.0041 -6.79071
LeftHand  -0.308412 -3.4392 4.30706
RightShoulder  -4.96962e-017 0 -2.36833e-017
RightArm  -13.782 -25.8748 72.4971
RightForeArm  39.6114 38.4923 6.42095
RightHand  -0.0108886 -0.653111 -0.181252
LeftUpLeg  -6.07704 5.72113 5.1294
LeftLeg  1.10191 13.6349 -0.60871
LeftFoot  10.0281 -0.218579 2.5752
LeftToes  -28.8523 2.40056e-006 -7.68412e-008
104
root  -41.2515 34.9032 4.40795 -141.456 88.1117 -150.705
RightUpLeg  -5.76907 -17.3173 -0.682586
RightLeg  1.37311 -2.49554 0.101224
RightFoot  7.42366 0.0372067 -0.160268
RightToes  -27.3848 -0.115058 -0.246643
Spine  -2.21857 0.0364418 0.251488
Spine1  -4.4391 0.229601 1.17421
HEad  -75.8027 5.33108 3.82748
LeftShoulder1  -1.94126e-019 -3.10601e-018 -2.51263e-017
LeftArm  -1.41917 20.6994 -73.5103
LeftForeArm  28.1028 -43.585 -8.75042
LeftHand  -0.326838 -3.52058 4.51328
RightShoulder  -4.96962e-017 0 -2.36833e-017
RightArm  -12.6001 -25.1731 70.6495
RightForeArm  38.0795 47.9244 9.57992
RightHand  0.00878301 -1.16958 0.421858
LeftUpLeg  -5.48721 5.67226 5.15966
LeftLeg  0.512108 13.6584 -0.749264
LeftFoot  10.1816 -0.223812 2.62359
LeftToes  -28.8801 2.40056e-006 -7.68412e-008
105
root  -41.155 34.9219 4.40238 -140.378 88.1761 -149.278
RightUpLeg  -4.96159 -17.1602 -0.835315
RightLeg  0.782413 -2.57808 0.131035
RightFoot  7.62886 0.0389243 -0.181377
RightToes  -27.4647 -0.114947 -0.246318
Spine  -2.34837 0.0372412 0.252806
Spine1  -4.64977 0.25193 1.13048
HEad  -75.3552 5.12385 3.85007
LeftShoulder1  -1.94126e-019 -3.10601e-018 -2.51263e-017
LeftArm  -3.72686 18.0207 -70.6397
LeftForeArm  28.8295 -51.579 -11.9247
LeftHand  -0.36891 -2.86812 5.41594
RightShoulder  -4.96962e-017 0 -2.36833e-017
RightArm  -12.0331 -23.4052 68.3209
RightForeArm  39.136 58.0367 14.5181
RightHand  0.000846198 -1.96578 0.399003
LeftUpLeg  -4.69727 5.59814 5.19787
LeftLeg  -0.048593 13.7912 -0.890451
LeftFoot  10.3267 -0.228753 2.69267
LeftToes  -28.7436 2.40056e-006 -7.68412e-008
106
root  -41.0484 34.9297 4.39634 -136.471 88.3753 -144.696
RightUpLeg  -4.1926 -16.8827 -1.0987
RightLeg  0.946173 -2.61303 0.125369
RightFoot  7.46621 0.0391517 -0.181105
RightToes  -27.3675 -0.114853 -0.245951
Spine  -2.49227 0.0774952 0.210538
Spine1  -4.85328 0.346527 1.03813
HEad  -74.4469 4.67218 4.21971
LeftShoulder1  -1.94126e-019 -3.10601e-018 -2.51263e-017
LeftArm  -6.65571 14.563 -67.8261
LeftForeArm  30.9176 -60.2397 -17.0499
LeftHand  -0.412045 -1.92169 6.72971
RightShoulder  -4.96962e-017 0 -2.36833e-017
RightArm  -12.5585 -20.2674 65.7544
RightForeArm  43.6523 67.6253 23.0355
RightHand  -0.0172001 -2.91905 -0.0615233
LeftUpLeg  -3.82456 5.53953 5.26204
LeftLeg  0.0027515 14.0267 -0.892861
LeftFoot  10.1672 -0.226218 2.70408
LeftToes  -28.4591 2.40056e-006 -7.68412e-008
107
root  -40.9739 34.9353 4.39271 -130.343 88.565 -138.123
RightUpLeg  -3.76168 -16.4596 -1.25098
RightLeg  1.17532 -2.78634 0.122566
RightFoot  7.36615 0.0407733 -0.200673
RightToes  -27.3235 -0.114776 -0.24554
Spine  -2.73827 0.156417 0.185205
Spine1  -5.24827 0.549739 0.953756
HEad  -73.6175 4.06961 4.65794
LeftShoulder1  -1.94126e-019 -3.10601e-018 -2.51263e-017
LeftArm  -10.2296 10.3645 -65.0486
LeftForeArm  37.2271 -69.4486 -27.2038
LeftHand  -0.410577 -1.0516 7.53918
RightShoulder  -4.96962e-017 0 -2.36833e-017
RightArm  -14.4979 -15.7198 63.0994
RightForeArm  57.5492 75.7863 40.4988
RightHand  -0.0405934 -3.50641 -1.38091
LeftUpLeg  -3.3233 5.53128 5.31424
LeftLeg  0.245133 14.2263 -0.845558
LeftFoot  9.97716 -0.221715 2.70182
LeftToes  -28.395 2.40056e-006 -7.68412e-008
108
root  -40.8944 34.9366 4.38264 -121.484 88.7478 -128.944
RightUpLeg  -3.42143 -16.1913 -1.38423
RightLeg  1.34383 -2.76674 0.113599
RightFoot  7.25383 0.0407118 -0.196098
RightToes  -27.2279 -0.114716 -0.245084
Spine  -3.00443 0.251069 0.163284
Spine1  -5.6705 0.786642 0.883853
HEad  -73.4212 3.48806 4.98161
LeftShoulder1  -1.94126e-019 -3.10601e-018 -2.51263e-017
LeftArm  -14.0579 5.23756 -62.4663
LeftForeArm  57.109 -77.2521 -50.3317
LeftHand  -0.413425 -0.0624344 8.87525
RightShoulder  -4.96962e-017 0 -2.36833e-017
RightArm  -18.2079 -10.1403 60.7451
RightForeArm  97.3767 80.5025 81.4618
RightHand  -0.0593575 -4.20447 -3.85861
LeftUpLeg  -2.94139 5.49537 5.33712
LeftLeg  0.509355 14.5132 -0.795856
LeftFoot  9.73987 -0.216077 2.69721
LeftToes  -28.0985 2.40056e-006 -7.68412e-008
109
root  -40.8194 34.9357 4.36825 -111.556 88.8893 -118.839
RightUpLeg  -3.1577 -15.9744 -1.49585
RightLeg  1.35288 -2.74249 0.112174
RightFoot  7.23495 0.0408738 -0.19463
RightToes  -27.1922 -0.114675 -0.244581
Spine  -3.26015 0.344983 0.098312
Spine1  -6.08705 1.0124 0.750698
HEad  -74.2945 3.04413 5.21174
LeftShoulder1  -1.94126e-019 -3.10601e-018 -2.51263e-017
LeftArm  -18.159 -0.723633 -60.1934
LeftForeArm  102.895 -79.9521 -97.9017
LeftHand  -0.460113 0.634324 11.2518
RightShoulder  -4.96962e-017 0 -2.36833e-017
RightArm  -23.4711 -3.52182 58.9456
RightForeArm  141.841 78.527 125.631
RightHand  -0.0402665 -5.09531 -7.60891
LeftUpLeg  -2.72157 5.46028 5.32235
LeftLeg  0.77428 14.7739 -0.742138
LeftFoot  9.54853 -0.211968 2.69908
LeftToes  -27.9573 2.40056e-006 -7.68412e-008
110
root  -40.739 34.9322 4.35103 -101.301 88.9891 -108.533
RightUpLeg  -2.94015 -15.8782 -1.5922
RightLeg  1.22066 -2.64063 0.114089
RightFoot  7.29247 0.0404718 -0.185012
RightToes  -27.3179 -0.114653 -0.24403
Spine  -3.45679 0.437886 0.0279544
Spine1  -6.42599 1.22855 0.61996
HEad  -75.5558 2.32887 5.13529
LeftShoulder1  -1.94126e-019 -3.10601e-018 -2.51263e-017
LeftArm  -22.086 -7.13334 -58.2448
LeftForeArm  138.465 -76.1061 -134.557
LeftHand  -0.510725 0.824847 12.9938
RightShoulder  -4.96962e-017 0 -2.36833e-017
RightArm  -29.3992 3.69299 57.5981
RightForeArm  163.993 73.8773 145.718
RightHand  0.0482361 -5.9965 -12.8748
LeftUpLeg  -2.56183 5.45909 5.28177
LeftLeg  0.906313 14.9723 -0.717704
LeftFoot  9.43338 -0.210068 2.70717
LeftToes  -27.7904 2.40056e-006 -7.68412e-008
111
root  -40.6484 34.9152 4.32888 -90.3903 89.0448 -97.7122
RightUpLeg  -3.0518 -15.9291 -1.66515
RightLeg  1.50275 -2.40856 0.0922819
RightFoot  7.13167 0.0381013 -0.14717
RightToes  -27.4452 -0.11465 -0.243429
Spine  -3.54766 0.491711 -0.0844928
Spine1  -6.59016 1.35663 0.447352
HEad  -77.3227 2.19739 4.75097
LeftShoulder1  -1.94126e-019 -3.10601e-018 -2.51263e-017
LeftArm  -26.2418 -14.3002 -56.682
LeftForeArm  151.954 -70.7944 -149.403
LeftHand  -0.595449 0.744419 14.8917
RightShoulder  -4.96962e-017 0 -2.36833e-017
RightArm  -35.3613 11.6272 56.5578
RightForeArm  174.006 70.1482 153.593
RightHand  0.137592 -6.27062 -19.6352
LeftUpLeg  -2.62571 5.52208 5.23064
LeftLeg  1.24866 15.1028 -0.634488
LeftFoot  9.14667 -0.199418 2.65422
LeftToes  -27.6092 2.40056e-006 -7.68412e-008
112
root  -40.5652 34.8869 4.30327 -81.1271 89.0638 -88.5698
RightUpLeg  -3.31081 -15.8637 -1.73048
RightLeg  2.0151 -2.32167 0.0683039
RightFoot  6.78637 0.0362716 -0.116968
RightToes  -27.5582 -0.114668 -0.242778
Spine  -3.58446 0.569692 -0.156584
Spine1  -6.69396 1.51317 0.308358
HEad  -79.3111 1.93057 4.46736
LeftShoulder1  -1.94126e-019 -3.10601e-018 -2.51263e-017
LeftArm  -29.8253 -21.6618 -55.7528
LeftForeArm  156.757 -66.2728 -155.996
LeftHand  -0.647751 0.718071 16.1041
RightShoulder  -4.96962e-017 0 -2.36833e-017
RightArm  -40.8844 19.2788 55.6713
RightForeArm  178.817 67.1844 157.719
RightHand  0.304964 -6.7753 -25.6853
LeftUpLeg  -2.90535 5.62992 5.17709
LeftLeg  1.93429 15.1483 -0.457055
LeftFoot  8.69123 -0.180609 2.53794
LeftToes  -27.4269 2.40056e-006 -7.68412e-008
113
root  -40.496 34.8684 4.28285 -75.23 89.0674 -82.698
RightUpLeg  -3.42997 -15.6825 -1.79737
RightLeg  2.41207 -2.41357 0.0543455
RightFoot  6.52925 0.0360675 -0.109904
RightToes  -27.5905 -0.114706 -0.242074
Spine  -3.57729 0.612332 -0.248231
Spine1  -6.74191 1.58917 0.135405
HEad  -80.343 1.49901 4.02558
LeftShoulder1  -1.94126e-019 -3.10601e-018 -2.51263e-017
LeftArm  -31.8187 -28.4813 -55.595
LeftForeArm  159.663 -63.0998 -159.327
LeftHand  -0.734721 0.497674 17.4466
RightShoulder  -4.96962e-017 0 -2.36833e-017
RightArm  -45.119 26.0524 55.6722
RightForeArm  -179.072 64.7392 160.26
RightHand  0.448897 -7.1171 -29.6409
LeftUpLeg  -3.04727 5.7022 5.14293
LeftLeg  2.45818 15.1569 -0.320316
LeftFoot  8.35093 -0.166824 2.44637
LeftToes  -27.43 2.40056e-006 -7.68412e-008
